<?xml version="1.0" encoding="UTF-8" standalone="no"?>
<!-- Created with Inkscape (http://www.inkscape.org/) -->

<svg
   width="1000"
   height="1000"
   viewBox="0 0 264.58333 264.58333"
   version="1.1"
   id="svg5"
   inkscape:version="1.2.1 (9c6d41e410, 2022-07-14)"
   sodipodi:docname="computer_colored.svg"
   xmlns:inkscape="http://www.inkscape.org/namespaces/inkscape"
   xmlns:sodipodi="http://sodipodi.sourceforge.net/DTD/sodipodi-0.dtd"
   xmlns="http://www.w3.org/2000/svg"
   xmlns:svg="http://www.w3.org/2000/svg">
  <sodipodi:namedview
     id="namedview7"
     pagecolor="#ffffff"
     bordercolor="#999999"
     borderopacity="1"
     inkscape:showpageshadow="0"
     inkscape:pageopacity="0"
     inkscape:pagecheckerboard="true"
     inkscape:deskcolor="#d1d1d1"
     inkscape:document-units="mm"
     showgrid="false"
     inkscape:zoom="0.772"
     inkscape:cx="499.35233"
     inkscape:cy="500"
     inkscape:window-width="1920"
     inkscape:window-height="1017"
     inkscape:window-x="1912"
     inkscape:window-y="-8"
     inkscape:window-maximized="1"
     inkscape:current-layer="layer1" />
  <defs
     id="defs2" />
  <g
     inkscape:label="Ebene 1"
     inkscape:groupmode="layer"
     id="layer1">
    <path
       style="fill:#969696;fill-opacity:1;stroke:none;stroke-width:3.96874;stroke-linecap:round;stroke-linejoin:round;stroke-dasharray:none;stroke-dashoffset:0;stroke-opacity:1"
       d="M 105.83334,194.46875 92.604173,222.25 h 79.375007 l -13.22917,-27.78125 z"
       id="path15963"
       sodipodi:nodetypes="ccccc" />
    <path
       id="rect15959"
       style="fill:#96c8e1;fill-opacity:1;stroke-width:3.96876;stroke-linecap:round;stroke-linejoin:round"
       d="M 13.229163,33.072918 H 251.35418 c 7.32896,0 13.22916,5.900209 13.22916,13.229168 V 185.20834 c 0,7.32896 -5.9002,13.22917 -13.22916,13.22917 H 13.229163 C 5.9002133,198.43751 3.3333334e-6,192.5373 3.3333334e-6,185.20834 V 46.302086 C 3.3333334e-6,38.973127 5.9002133,33.072918 13.229163,33.072918 Z" />
    <path
       id="rect15961"
       style="fill:#e1e1e1;fill-opacity:1;stroke-width:3.96876;stroke-linecap:round;stroke-linejoin:round"
       d="M 70.114593,218.28125 H 194.46877 c 2.19868,0 3.96875,1.77006 3.96875,3.96875 v 5.29167 c 0,2.19868 -1.77007,3.96875 -3.96875,3.96875 H 70.114593 c -2.19869,0 -3.96875,-1.77007 -3.96875,-3.96875 V 222.25 c 0,-2.19869 1.77006,-3.96875 3.96875,-3.96875 z" />
    <path
       id="rect15965"
       style="fill:#e1e1e1;fill-opacity:1;stroke:none;stroke-width:3.96875;stroke-linecap:round;stroke-linejoin:round"
       d="m 3.3333334e-6,178.59375 v 6.61459 c 0,7.32896 5.9001999666666,13.22917 13.2291596666666,13.22917 H 251.35418 c 7.32895,0 13.22916,-5.90021 13.22916,-13.22917 v -6.61459 z"
       sodipodi:nodetypes="csssscc" />
    <rect
       style="fill:#969696;fill-opacity:1;stroke:none;stroke-width:3.96875;stroke-linecap:round;stroke-linejoin:miter;stroke-dasharray:none;stroke-opacity:1"
       id="rect16166"
       width="13.229167"
       height="3.96875"
       x="125.67709"
       y="186.53125"
       rx="1.984375"
       ry="1.984375" />
  </g>
</svg>
