<?xml version="1.0" encoding="UTF-8" standalone="no"?>
<!-- Created with Inkscape (http://www.inkscape.org/) -->

<svg
   width="1000"
   height="1000"
   viewBox="0 0 264.58333 264.58333"
   version="1.1"
   id="svg5"
   inkscape:version="1.2.1 (9c6d41e410, 2022-07-14)"
   sodipodi:docname="calendar_outline.svg"
   xml:space="preserve"
   xmlns:inkscape="http://www.inkscape.org/namespaces/inkscape"
   xmlns:sodipodi="http://sodipodi.sourceforge.net/DTD/sodipodi-0.dtd"
   xmlns="http://www.w3.org/2000/svg"
   xmlns:svg="http://www.w3.org/2000/svg"><sodipodi:namedview
     id="namedview7"
     pagecolor="#ffffff"
     bordercolor="#999999"
     borderopacity="1"
     inkscape:showpageshadow="0"
     inkscape:pageopacity="0"
     inkscape:pagecheckerboard="true"
     inkscape:deskcolor="#d1d1d1"
     inkscape:document-units="mm"
     showgrid="false"
     inkscape:zoom="0.54588644"
     inkscape:cx="695.19954"
     inkscape:cy="642.99088"
     inkscape:window-width="1920"
     inkscape:window-height="1017"
     inkscape:window-x="1912"
     inkscape:window-y="-8"
     inkscape:window-maximized="1"
     inkscape:current-layer="layer1" /><defs
     id="defs2" /><g
     inkscape:label="Ebene 1"
     inkscape:groupmode="layer"
     id="layer1"><path
       id="path22700"
       style="color:#000000;fill:#000000;stroke-width:7.9375;stroke-linecap:round;stroke-linejoin:round"
       d="M 13.229167 50.932292 C 5.900221 50.932292 2.5066344e-15 56.832514 0 64.161458 L 0 92.604167 L 264.58333 92.604167 L 264.58333 64.161458 C 264.58333 56.832514 258.68311 50.932292 251.35417 50.932292 L 212.98958 50.932292 L 212.98958 54.901042 L 251.35417 54.901042 C 256.55306 54.901042 260.61458 58.962555 260.61458 64.161458 L 260.61458 88.635417 L 3.96875 88.635417 L 3.96875 64.161458 C 3.96875 58.962551 8.0302606 54.901042 13.229167 54.901042 L 51.59375 54.901042 L 51.59375 50.932292 L 13.229167 50.932292 z M 67.46875 50.932292 L 67.46875 54.901042 L 197.11458 54.901042 L 197.11458 50.932292 L 67.46875 50.932292 z " /><path
       id="path21963"
       style="color:#000000;fill:#000000;stroke-width:7.9375;stroke-linecap:round;stroke-linejoin:round"
       d="M 13.229167 50.932292 C 5.9002225 50.932292 2.5066344e-15 56.832515 0 64.161458 L 0 218.28125 C 0 225.61019 5.9002225 231.51042 13.229167 231.51042 L 251.35417 231.51042 C 258.68311 231.51042 264.58333 225.61019 264.58333 218.28125 L 264.58333 64.161458 C 264.58333 56.832515 258.68311 50.932292 251.35417 50.932292 L 212.98958 50.932292 L 212.98958 54.901042 L 251.35417 54.901042 C 256.55306 54.901042 260.61458 58.962556 260.61458 64.161458 L 260.61458 218.28125 C 260.61458 223.48014 256.55306 227.54167 251.35417 227.54167 L 13.229167 227.54167 C 8.0302619 227.54167 3.96875 223.48014 3.96875 218.28125 L 3.96875 64.161458 C 3.96875 58.962556 8.0302619 54.901042 13.229167 54.901042 L 51.59375 54.901042 L 51.59375 50.932292 L 13.229167 50.932292 z M 67.46875 50.932292 L 67.46875 54.901042 L 197.11458 54.901042 L 197.11458 50.932292 L 67.46875 50.932292 z " /><path
       id="path23619"
       style="color:#000000;fill:#000000;stroke-width:7.9375;stroke-linecap:round;stroke-linejoin:round"
       d="M 59.53125 33.072917 C 54.034536 33.072917 49.609375 37.498078 49.609375 42.994792 L 49.609375 62.838542 C 49.609375 68.335255 54.034536 72.760417 59.53125 72.760417 C 65.027964 72.760417 69.453125 68.335255 69.453125 62.838542 L 69.453125 42.994792 C 69.453125 37.498078 65.027964 33.072917 59.53125 33.072917 z M 59.53125 37.041667 C 62.897923 37.041667 65.484375 39.628118 65.484375 42.994792 L 65.484375 62.838542 C 65.484375 66.205214 62.897923 68.791667 59.53125 68.791667 C 56.164577 68.791667 53.578125 66.205214 53.578125 62.838542 L 53.578125 42.994792 C 53.578125 39.628118 56.164577 37.041667 59.53125 37.041667 z " /><path
       id="path24515"
       style="color:#000000;fill:#000000;stroke-width:7.9375;stroke-linecap:round;stroke-linejoin:round"
       d="m 205.05208,33.072917 c -5.49671,0 -9.92187,4.425161 -9.92187,9.921875 v 19.84375 c 0,5.496713 4.42516,9.921875 9.92187,9.921875 5.49672,0 9.92188,-4.425162 9.92188,-9.921875 v -19.84375 c 0,-5.496714 -4.42516,-9.921875 -9.92188,-9.921875 z m 0,3.96875 c 3.36668,0 5.95313,2.586451 5.95313,5.953125 v 19.84375 c 0,3.366672 -2.58645,5.953125 -5.95313,5.953125 -3.36667,0 -5.95312,-2.586453 -5.95312,-5.953125 v -19.84375 c 0,-3.366674 2.58645,-5.953125 5.95312,-5.953125 z" /><path
       id="path24543"
       style="color:#000000;fill:#000000;stroke-width:7.9375;stroke-linecap:round;stroke-linejoin:round;-inkscape-stroke:none"
       d="m 28.663113,107.48698 c -3.66448,0 -6.61459,2.9501 -6.61459,6.61458 v 13.22917 c 0,3.66447 2.95011,6.61458 6.61459,6.61458 h 13.22916 c 3.66448,0 6.61459,-2.95011 6.61459,-6.61458 v -13.22917 c 0,-3.66448 -2.95011,-6.61458 -6.61459,-6.61458 z m 0,3.96875 h 13.22916 c 1.53444,0 2.64584,1.11139 2.64584,2.64583 v 13.22917 c 0,1.53443 -1.1114,2.64583 -2.64584,2.64583 h -13.22916 c -1.53444,0 -2.64584,-1.1114 -2.64584,-2.64583 v -13.22917 c 0,-1.53444 1.1114,-2.64583 2.64584,-2.64583 z" /><path
       id="path24552"
       style="color:#000000;fill:#000000;stroke-width:7.9375;stroke-linecap:round;stroke-linejoin:round;-inkscape-stroke:none"
       d="m 222.69088,107.48698 c -3.66448,0 -6.61459,2.9501 -6.61459,6.61458 v 13.22917 c 0,3.66447 2.95011,6.61458 6.61459,6.61458 h 13.22916 c 3.66448,0 6.61459,-2.95011 6.61459,-6.61458 v -13.22917 c 0,-3.66448 -2.95011,-6.61458 -6.61459,-6.61458 z m 0,3.96875 h 13.22916 c 1.53444,0 2.64584,1.11139 2.64584,2.64583 v 13.22917 c 0,1.53443 -1.1114,2.64583 -2.64584,2.64583 h -13.22916 c -1.53444,0 -2.64584,-1.1114 -2.64584,-2.64583 v -13.22917 c 0,-1.53444 1.1114,-2.64583 2.64584,-2.64583 z" /><path
       id="path24554"
       style="color:#000000;fill:#000000;stroke-width:7.9375;stroke-linecap:round;stroke-linejoin:round;-inkscape-stroke:none"
       d="m 77.170053,107.48698 c -3.66448,0 -6.61459,2.9501 -6.61459,6.61458 v 13.22917 c 0,3.66447 2.95011,6.61458 6.61459,6.61458 h 13.22916 c 3.66448,0 6.61459,-2.95011 6.61459,-6.61458 v -13.22917 c 0,-3.66448 -2.95011,-6.61458 -6.61459,-6.61458 z m 0,3.96875 h 13.22916 c 1.53444,0 2.64584,1.11139 2.64584,2.64583 v 13.22917 c 0,1.53443 -1.1114,2.64583 -2.64584,2.64583 h -13.22916 c -1.53444,0 -2.64584,-1.1114 -2.64584,-2.64583 v -13.22917 c 0,-1.53444 1.1114,-2.64583 2.64584,-2.64583 z" /><path
       id="path24556"
       style="color:#000000;fill:#000000;stroke-width:7.9375;stroke-linecap:round;stroke-linejoin:round;-inkscape-stroke:none"
       d="m 125.677,107.48698 c -3.66449,0 -6.6146,2.9501 -6.6146,6.61458 v 13.22917 c 0,3.66447 2.95011,6.61458 6.6146,6.61458 h 13.22915 c 3.66449,0 6.6146,-2.95011 6.6146,-6.61458 v -13.22917 c 0,-3.66448 -2.95011,-6.61458 -6.6146,-6.61458 z m 0,3.96875 h 13.22915 c 1.53444,0 2.64585,1.11139 2.64585,2.64583 v 13.22917 c 0,1.53443 -1.11141,2.64583 -2.64585,2.64583 H 125.677 c -1.53445,0 -2.64585,-1.1114 -2.64585,-2.64583 v -13.22917 c 0,-1.53444 1.1114,-2.64583 2.64585,-2.64583 z" /><path
       id="path24558"
       style="color:#000000;fill:#000000;stroke-width:7.9375;stroke-linecap:round;stroke-linejoin:round;-inkscape-stroke:none"
       d="m 174.18394,107.48698 c -3.66448,0 -6.61459,2.9501 -6.61459,6.61458 v 13.22917 c 0,3.66447 2.95011,6.61458 6.61459,6.61458 h 13.22916 c 3.66448,0 6.61459,-2.95011 6.61459,-6.61458 v -13.22917 c 0,-3.66448 -2.95011,-6.61458 -6.61459,-6.61458 z m 0,3.96875 h 13.22916 c 1.53444,0 2.64584,1.11139 2.64584,2.64583 v 13.22917 c 0,1.53443 -1.1114,2.64583 -2.64584,2.64583 h -13.22916 c -1.53444,0 -2.64584,-1.1114 -2.64584,-2.64583 v -13.22917 c 0,-1.53444 1.1114,-2.64583 2.64584,-2.64583 z" /><path
       id="path24570"
       style="color:#000000;fill:#000000;stroke-width:7.9375;stroke-linecap:round;stroke-linejoin:round;-inkscape-stroke:none"
       d="m 28.663113,148.82813 c -3.66448,0 -6.61459,2.9501 -6.61459,6.61458 v 13.22917 c 0,3.66447 2.95011,6.61458 6.61459,6.61458 h 13.22916 c 3.66448,0 6.61459,-2.95011 6.61459,-6.61458 v -13.22917 c 0,-3.66448 -2.95011,-6.61458 -6.61459,-6.61458 z m 0,3.96875 h 13.22916 c 1.53444,0 2.64584,1.11139 2.64584,2.64583 v 13.22917 c 0,1.53443 -1.1114,2.64583 -2.64584,2.64583 h -13.22916 c -1.53444,0 -2.64584,-1.1114 -2.64584,-2.64583 v -13.22917 c 0,-1.53444 1.1114,-2.64583 2.64584,-2.64583 z" /><path
       id="path24572"
       style="color:#000000;fill:#000000;stroke-width:7.9375;stroke-linecap:round;stroke-linejoin:round;-inkscape-stroke:none"
       d="m 222.69088,148.82813 c -3.66448,0 -6.61459,2.9501 -6.61459,6.61458 v 13.22917 c 0,3.66447 2.95011,6.61458 6.61459,6.61458 h 13.22916 c 3.66448,0 6.61459,-2.95011 6.61459,-6.61458 v -13.22917 c 0,-3.66448 -2.95011,-6.61458 -6.61459,-6.61458 z m 0,3.96875 h 13.22916 c 1.53444,0 2.64584,1.11139 2.64584,2.64583 v 13.22917 c 0,1.53443 -1.1114,2.64583 -2.64584,2.64583 h -13.22916 c -1.53444,0 -2.64584,-1.1114 -2.64584,-2.64583 v -13.22917 c 0,-1.53444 1.1114,-2.64583 2.64584,-2.64583 z" /><path
       id="path24574"
       style="color:#000000;fill:#000000;stroke-width:7.9375;stroke-linecap:round;stroke-linejoin:round;-inkscape-stroke:none"
       d="m 77.170053,148.82813 c -3.66448,0 -6.61459,2.9501 -6.61459,6.61458 v 13.22917 c 0,3.66447 2.95011,6.61458 6.61459,6.61458 h 13.22916 c 3.66448,0 6.61459,-2.95011 6.61459,-6.61458 v -13.22917 c 0,-3.66448 -2.95011,-6.61458 -6.61459,-6.61458 z m 0,3.96875 h 13.22916 c 1.53444,0 2.64584,1.11139 2.64584,2.64583 v 13.22917 c 0,1.53443 -1.1114,2.64583 -2.64584,2.64583 h -13.22916 c -1.53444,0 -2.64584,-1.1114 -2.64584,-2.64583 v -13.22917 c 0,-1.53444 1.1114,-2.64583 2.64584,-2.64583 z" /><path
       id="path24576"
       style="color:#000000;fill:#000000;stroke-width:7.9375;stroke-linecap:round;stroke-linejoin:round;-inkscape-stroke:none"
       d="m 125.677,148.82813 c -3.66449,0 -6.6146,2.9501 -6.6146,6.61458 v 13.22917 c 0,3.66447 2.95011,6.61458 6.6146,6.61458 h 13.22915 c 3.66449,0 6.6146,-2.95011 6.6146,-6.61458 v -13.22917 c 0,-3.66448 -2.95011,-6.61458 -6.6146,-6.61458 z m 0,3.96875 h 13.22915 c 1.53444,0 2.64585,1.11139 2.64585,2.64583 v 13.22917 c 0,1.53443 -1.11141,2.64583 -2.64585,2.64583 H 125.677 c -1.53445,0 -2.64585,-1.1114 -2.64585,-2.64583 v -13.22917 c 0,-1.53444 1.1114,-2.64583 2.64585,-2.64583 z" /><path
       id="path24578"
       style="color:#000000;fill:#000000;stroke-width:7.9375;stroke-linecap:round;stroke-linejoin:round;-inkscape-stroke:none"
       d="m 174.18394,148.82813 c -3.66448,0 -6.61459,2.9501 -6.61459,6.61458 v 13.22917 c 0,3.66447 2.95011,6.61458 6.61459,6.61458 h 13.22916 c 3.66448,0 6.61459,-2.95011 6.61459,-6.61458 v -13.22917 c 0,-3.66448 -2.95011,-6.61458 -6.61459,-6.61458 z m 0,3.96875 h 13.22916 c 1.53444,0 2.64584,1.11139 2.64584,2.64583 v 13.22917 c 0,1.53443 -1.1114,2.64583 -2.64584,2.64583 h -13.22916 c -1.53444,0 -2.64584,-1.1114 -2.64584,-2.64583 v -13.22917 c 0,-1.53444 1.1114,-2.64583 2.64584,-2.64583 z" /><path
       id="path24592"
       style="color:#000000;fill:#000000;stroke-width:7.9375;stroke-linecap:round;stroke-linejoin:round;-inkscape-stroke:none"
       d="m 28.663113,190.16928 c -3.66448,0 -6.61459,2.9501 -6.61459,6.61458 v 13.22917 c 0,3.66447 2.95011,6.61458 6.61459,6.61458 h 13.22916 c 3.66448,0 6.61459,-2.95011 6.61459,-6.61458 v -13.22917 c 0,-3.66448 -2.95011,-6.61458 -6.61459,-6.61458 z m 0,3.96875 h 13.22916 c 1.53444,0 2.64584,1.11139 2.64584,2.64583 v 13.22917 c 0,1.53443 -1.1114,2.64583 -2.64584,2.64583 h -13.22916 c -1.53444,0 -2.64584,-1.1114 -2.64584,-2.64583 v -13.22917 c 0,-1.53444 1.1114,-2.64583 2.64584,-2.64583 z" /><path
       id="path24594"
       style="color:#000000;fill:#000000;stroke-width:7.9375;stroke-linecap:round;stroke-linejoin:round;-inkscape-stroke:none"
       d="m 222.69088,190.16928 c -3.66448,0 -6.61459,2.9501 -6.61459,6.61458 v 13.22917 c 0,3.66447 2.95011,6.61458 6.61459,6.61458 h 13.22916 c 3.66448,0 6.61459,-2.95011 6.61459,-6.61458 v -13.22917 c 0,-3.66448 -2.95011,-6.61458 -6.61459,-6.61458 z m 0,3.96875 h 13.22916 c 1.53444,0 2.64584,1.11139 2.64584,2.64583 v 13.22917 c 0,1.53443 -1.1114,2.64583 -2.64584,2.64583 h -13.22916 c -1.53444,0 -2.64584,-1.1114 -2.64584,-2.64583 v -13.22917 c 0,-1.53444 1.1114,-2.64583 2.64584,-2.64583 z" /><path
       id="path24596"
       style="color:#000000;fill:#000000;stroke-width:7.9375;stroke-linecap:round;stroke-linejoin:round;-inkscape-stroke:none"
       d="m 77.170053,190.16928 c -3.66448,0 -6.61459,2.9501 -6.61459,6.61458 v 13.22917 c 0,3.66447 2.95011,6.61458 6.61459,6.61458 h 13.22916 c 3.66448,0 6.61459,-2.95011 6.61459,-6.61458 v -13.22917 c 0,-3.66448 -2.95011,-6.61458 -6.61459,-6.61458 z m 0,3.96875 h 13.22916 c 1.53444,0 2.64584,1.11139 2.64584,2.64583 v 13.22917 c 0,1.53443 -1.1114,2.64583 -2.64584,2.64583 h -13.22916 c -1.53444,0 -2.64584,-1.1114 -2.64584,-2.64583 v -13.22917 c 0,-1.53444 1.1114,-2.64583 2.64584,-2.64583 z" /><path
       id="path24598"
       style="color:#000000;fill:#000000;stroke-width:7.9375;stroke-linecap:round;stroke-linejoin:round;-inkscape-stroke:none"
       d="m 125.677,190.16928 c -3.66449,0 -6.6146,2.9501 -6.6146,6.61458 v 13.22917 c 0,3.66447 2.95011,6.61458 6.6146,6.61458 h 13.22915 c 3.66449,0 6.6146,-2.95011 6.6146,-6.61458 v -13.22917 c 0,-3.66448 -2.95011,-6.61458 -6.6146,-6.61458 z m 0,3.96875 h 13.22915 c 1.53444,0 2.64585,1.11139 2.64585,2.64583 v 13.22917 c 0,1.53443 -1.11141,2.64583 -2.64585,2.64583 H 125.677 c -1.53445,0 -2.64585,-1.1114 -2.64585,-2.64583 v -13.22917 c 0,-1.53444 1.1114,-2.64583 2.64585,-2.64583 z" /><path
       id="path24600"
       style="color:#000000;fill:#000000;stroke-width:7.9375;stroke-linecap:round;stroke-linejoin:round;-inkscape-stroke:none"
       d="m 174.18394,190.16928 c -3.66448,0 -6.61459,2.9501 -6.61459,6.61458 v 13.22917 c 0,3.66447 2.95011,6.61458 6.61459,6.61458 h 13.22916 c 3.66448,0 6.61459,-2.95011 6.61459,-6.61458 v -13.22917 c 0,-3.66448 -2.95011,-6.61458 -6.61459,-6.61458 z m 0,3.96875 h 13.22916 c 1.53444,0 2.64584,1.11139 2.64584,2.64583 v 13.22917 c 0,1.53443 -1.1114,2.64583 -2.64584,2.64583 h -13.22916 c -1.53444,0 -2.64584,-1.1114 -2.64584,-2.64583 v -13.22917 c 0,-1.53444 1.1114,-2.64583 2.64584,-2.64583 z" /></g></svg>
